<svg xmlns="http://www.w3.org/2000/svg" viewBox="0 0 90 110" width="90" height="110">
  <!-- White background -->
  <rect x="0" y="0" width="90" height="110" fill="#ffffff" rx="4"/>
  <!-- Blue square -->
  <rect x="10" y="8" width="70" height="70" fill="#0061a8"/>
  <!-- White R -->
  <path d="M25,18 L25,68 L37,68 L37,51 L43,51 L57,68 L72,68 L55,48 C63,45 67,38 67,30 C67,21 60,18 50,18 Z M37,28 L47,28 C53,28 55,31 55,35 C55,39 53,42 47,42 L37,42 Z" fill="#ffffff"/>
  <!-- REALTOR text -->
  <text x="45" y="95" text-anchor="middle" fill="#0061a8" font-size="14" font-weight="400" font-family="Arial, sans-serif" letter-spacing="1">REALTOR</text>
  <text x="82" y="88" fill="#0061a8" font-size="8" font-family="Arial, sans-serif">®</text>
</svg>
