<svg xmlns="http://www.w3.org/2000/svg" viewBox="0 0 800 600" aria-label="Pre-listing inspection checklist illustration">
  <rect x="220" y="80" width="340" height="440" fill="none" stroke="#2F6FED" stroke-width="4" rx="8"/>
  <rect x="240" y="110" width="300" height="50" fill="#2F6FED" opacity="0.2" rx="4"/>
  <text x="390" y="143" font-family="sans-serif" font-size="24" font-weight="bold" fill="#2F6FED" text-anchor="middle">Inspection Report</text>
  <circle cx="270" cy="210" r="18" fill="none" stroke="#F2C14E" stroke-width="3"/>
  <polyline points="262,210 268,218 282,202" fill="none" stroke="#F2C14E" stroke-width="3" stroke-linecap="round" stroke-linejoin="round"/>
  <line x1="310" y1="210" x2="520" y2="210" stroke="#2F6FED" stroke-width="2"/>
  <circle cx="270" cy="270" r="18" fill="none" stroke="#F2C14E" stroke-width="3"/>
  <polyline points="262,270 268,278 282,262" fill="none" stroke="#F2C14E" stroke-width="3" stroke-linecap="round" stroke-linejoin="round"/>
  <line x1="310" y1="270" x2="520" y2="270" stroke="#2F6FED" stroke-width="2"/>
  <circle cx="270" cy="330" r="18" fill="none" stroke="#F2C14E" stroke-width="3"/>
  <polyline points="262,330 268,338 282,322" fill="none" stroke="#F2C14E" stroke-width="3" stroke-linecap="round" stroke-linejoin="round"/>
  <line x1="310" y1="330" x2="520" y2="330" stroke="#2F6FED" stroke-width="2"/>
  <circle cx="270" cy="390" r="18" fill="none" stroke="#2F6FED" stroke-width="3"/>
  <line x1="310" y1="390" x2="520" y2="390" stroke="#2F6FED" stroke-width="2"/>
  <circle cx="270" cy="450" r="18" fill="none" stroke="#2F6FED" stroke-width="3"/>
  <line x1="310" y1="450" x2="520" y2="450" stroke="#2F6FED" stroke-width="2"/>
</svg>
