<svg xmlns="http://www.w3.org/2000/svg" viewBox="0 0 800 600" aria-label="Blog and insights illustration">
  <rect x="180" y="120" width="260" height="360" fill="none" stroke="#2F6FED" stroke-width="4" rx="8"/>
  <line x1="220" y1="180" x2="400" y2="180" stroke="#2F6FED" stroke-width="3"/>
  <line x1="220" y1="220" x2="380" y2="220" stroke="#2F6FED" stroke-width="2"/>
  <line x1="220" y1="250" x2="390" y2="250" stroke="#2F6FED" stroke-width="2"/>
  <line x1="220" y1="280" x2="370" y2="280" stroke="#2F6FED" stroke-width="2"/>
  <rect x="220" y="320" width="200" height="120" fill="none" stroke="#F2C14E" stroke-width="3" rx="4"/>
  <polyline points="240,400 270,360 300,380 330,340 360,370 390,350 420,420" fill="none" stroke="#F2C14E" stroke-width="3" stroke-linejoin="round"/>
  <rect x="480" y="180" width="200" height="280" fill="none" stroke="#2F6FED" stroke-width="4" rx="8"/>
  <line x1="510" y1="230" x2="650" y2="230" stroke="#2F6FED" stroke-width="2"/>
  <line x1="510" y1="270" x2="630" y2="270" stroke="#2F6FED" stroke-width="2"/>
  <line x1="510" y1="310" x2="640" y2="310" stroke="#2F6FED" stroke-width="2"/>
  <line x1="510" y1="350" x2="620" y2="350" stroke="#2F6FED" stroke-width="2"/>
  <line x1="510" y1="390" x2="635" y2="390" stroke="#2F6FED" stroke-width="2"/>
</svg>
