<svg xmlns="http://www.w3.org/2000/svg" viewBox="0 0 800 500">
  <defs>
    <linearGradient id="skyD" x1="0%" y1="0%" x2="0%" y2="100%">
      <stop offset="0%" style="stop-color:#90CAF9"/>
      <stop offset="100%" style="stop-color:#E3F2FD"/>
    </linearGradient>
  </defs>
  <!-- Sky -->
  <rect width="800" height="500" fill="url(#skyD)"/>
  <!-- Street -->
  <rect x="0" y="380" width="800" height="120" fill="#616161"/>
  <rect x="0" y="435" width="800" height="10" fill="#FFD54F" opacity="0.8"/>
  <!-- Sidewalk -->
  <rect x="0" y="350" width="800" height="30" fill="#BDBDBD"/>
  <!-- Historic downtown buildings -->
  <!-- Building 1 - Red brick -->
  <rect x="50" y="180" width="140" height="170" fill="#C62828"/>
  <rect x="60" y="200" width="35" height="50" fill="#FFECB3"/>
  <rect x="105" y="200" width="35" height="50" fill="#FFECB3"/>
  <rect x="150" y="200" width="35" height="50" fill="#FFECB3"/>
  <rect x="60" y="270" width="35" height="80" fill="#5D4037"/>
  <rect x="105" y="280" width="35" height="50" fill="#FFECB3"/>
  <rect x="150" y="280" width="35" height="50" fill="#FFECB3"/>
  <text x="120" y="175" text-anchor="middle" font-family="serif" font-size="14" fill="#FFF8E1">EST. 1808</text>

  <!-- Building 2 - Cream colored -->
  <rect x="200" y="150" width="120" height="200" fill="#FFF8E1"/>
  <rect x="215" y="170" width="30" height="45" fill="#81D4FA"/>
  <rect x="255" y="170" width="30" height="45" fill="#81D4FA"/>
  <rect x="295" y="170" width="18" height="45" fill="#81D4FA"/>
  <rect x="215" y="230" width="30" height="45" fill="#81D4FA"/>
  <rect x="255" y="230" width="30" height="45" fill="#81D4FA"/>
  <rect x="240" y="290" width="40" height="60" fill="#6D4C41"/>
  <polygon points="200,150 260,110 320,150" fill="#8D6E63"/>

  <!-- Building 3 - Gray stone -->
  <rect x="330" y="200" width="100" height="150" fill="#78909C"/>
  <rect x="345" y="220" width="25" height="35" fill="#B3E5FC"/>
  <rect x="380" y="220" width="25" height="35" fill="#B3E5FC"/>
  <rect x="345" y="270" width="25" height="35" fill="#B3E5FC"/>
  <rect x="380" y="270" width="25" height="35" fill="#B3E5FC"/>
  <rect x="360" y="310" width="30" height="40" fill="#5D4037"/>

  <!-- Building 4 - Historic storefront -->
  <rect x="440" y="170" width="130" height="180" fill="#EFEBE9"/>
  <rect x="450" y="250" width="50" height="100" fill="#4FC3F7"/>
  <rect x="510" y="250" width="50" height="100" fill="#4FC3F7"/>
  <rect x="450" y="190" width="110" height="40" fill="#C62828"/>
  <text x="505" y="217" text-anchor="middle" font-family="serif" font-size="16" fill="#FFFFFF">ANTIQUES</text>
  <polygon points="440,170 505,130 570,170" fill="#6D4C41"/>

  <!-- Building 5 - Brick with awning -->
  <rect x="580" y="190" width="110" height="160" fill="#D84315"/>
  <rect x="595" y="210" width="30" height="40" fill="#FFECB3"/>
  <rect x="640" y="210" width="30" height="40" fill="#FFECB3"/>
  <rect x="620" y="280" width="35" height="70" fill="#5D4037"/>
  <polygon points="580,270 635,250 690,270" fill="#43A047"/>

  <!-- Building 6 -->
  <rect x="700" y="210" width="100" height="140" fill="#FFF3E0"/>
  <rect x="720" y="230" width="25" height="35" fill="#81D4FA"/>
  <rect x="755" y="230" width="25" height="35" fill="#81D4FA"/>
  <rect x="740" y="290" width="30" height="60" fill="#6D4C41"/>

  <!-- Street lamp -->
  <rect x="48" y="290" width="6" height="90" fill="#37474F"/>
  <ellipse cx="51" cy="285" rx="15" ry="10" fill="#37474F"/>
  <ellipse cx="51" cy="280" rx="8" ry="6" fill="#FFF59D"/>

  <rect x="398" y="300" width="6" height="80" fill="#37474F"/>
  <ellipse cx="401" cy="295" rx="15" ry="10" fill="#37474F"/>
  <ellipse cx="401" cy="290" rx="8" ry="6" fill="#FFF59D"/>

  <!-- Overlay -->
  <rect x="0" y="0" width="800" height="500" fill="rgba(26,46,68,0.25)"/>
  <text x="400" y="80" text-anchor="middle" font-family="Georgia, serif" font-size="72" font-weight="bold" fill="#FFFFFF">Delaware</text>
  <text x="400" y="125" text-anchor="middle" font-family="Arial, sans-serif" font-size="24" fill="#FFFFFF">Delaware County, Ohio</text>
</svg>
