<svg xmlns="http://www.w3.org/2000/svg" viewBox="0 0 1080 1920" aria-label="Pre-listing inspection included">
  <rect width="1080" height="1920" fill="#0B1220"/>
  <text x="540" y="350" font-family="Arial, sans-serif" font-size="100" font-weight="bold" fill="#F2C14E" text-anchor="middle">Pre-listing</text>
  <text x="540" y="480" font-family="Arial, sans-serif" font-size="100" font-weight="bold" fill="#F2C14E" text-anchor="middle">inspection</text>
  <text x="540" y="610" font-family="Arial, sans-serif" font-size="100" font-weight="bold" fill="#F2C14E" text-anchor="middle">included</text>
  <rect x="180" y="750" width="720" height="400" fill="none" stroke="#2F6FED" stroke-width="6" rx="20"/>
  <circle cx="280" cy="870" r="30" fill="none" stroke="#F2C14E" stroke-width="5"/>
  <polyline points="265,870 275,885 300,855" fill="none" stroke="#F2C14E" stroke-width="5" stroke-linecap="round" stroke-linejoin="round"/>
  <line x1="350" y1="870" x2="820" y2="870" stroke="#2F6FED" stroke-width="4"/>
  <circle cx="280" cy="990" r="30" fill="none" stroke="#F2C14E" stroke-width="5"/>
  <polyline points="265,990 275,1005 300,975" fill="none" stroke="#F2C14E" stroke-width="5" stroke-linecap="round" stroke-linejoin="round"/>
  <line x1="350" y1="990" x2="820" y2="990" stroke="#2F6FED" stroke-width="4"/>
  <circle cx="280" cy="1110" r="30" fill="none" stroke="#F2C14E" stroke-width="5"/>
  <polyline points="265,1110 275,1125 300,1095" fill="none" stroke="#F2C14E" stroke-width="5" stroke-linecap="round" stroke-linejoin="round"/>
  <line x1="350" y1="1110" x2="820" y2="1110" stroke="#2F6FED" stroke-width="4"/>
  <text x="540" y="1400" font-family="Arial, sans-serif" font-size="56" font-weight="bold" fill="#E9EEFB" text-anchor="middle">TD Realty Ohio, LLC</text>
  <text x="540" y="1500" font-family="Arial, sans-serif" font-size="40" fill="#E9EEFB" text-anchor="middle">Brokerage license 2023006602</text>
  <text x="540" y="1570" font-family="Arial, sans-serif" font-size="40" fill="#E9EEFB" text-anchor="middle">Broker license 2023006467</text>
  <text x="540" y="1700" font-family="Arial, sans-serif" font-size="48" fill="#2F6FED" text-anchor="middle">(614) 392-8858</text>
  <text x="540" y="1780" font-family="Arial, sans-serif" font-size="42" fill="#2F6FED" text-anchor="middle">info@tdrealtyohio.com</text>
</svg>
